<svg version="1.0" xmlns="http://www.w3.org/2000/svg"
     viewBox="0 0 1024 1024">
    <rect width="100%" height="100%"/>
    <g fill="#ffffff">
        <path d="M443.733 229.779c-23.118 3.103-54.613 14.894-65.63 24.514-4.343 3.878-5.74 6.36-5.74 10.084 0 2.638 7.292 31.341 16.136 63.768s19.704 72.611 24.049 89.212a5646.72 5646.72 0 0 0 10.24 37.237c1.24 3.879 6.826 24.824 12.257 46.545 15.36 60.044 15.98 62.371 19.083 65.32 12.102 12.101 71.525.775 97.746-18.619 3.724-2.637 6.982-6.516 7.603-8.533.465-2.172-1.087-10.706-3.88-20.635-2.637-9.154-8.843-32.427-13.963-51.666-10.55-39.874-29.479-110.313-48.873-181.838-7.292-26.997-13.343-49.494-13.343-49.96 0-.465-1.862-1.861-4.344-3.102-5.74-2.948-19.239-4.034-31.34-2.327z"/>
        <path d="M659.394 374.07c-44.839 3.568-107.054 13.188-107.054 16.446 0 3.568 15.204 58.182 16.6 59.423.621.776 8.534 0 17.533-1.551 27.927-4.965 65.94-9.31 96.97-11.171 58.647-3.569 116.054 4.189 139.326 18.928 4.034 2.483 8.068 6.362 8.844 8.378 7.758 20.636-51.51 70.75-128 107.831-85.334 41.58-199.68 74.783-304.098 88.592-87.04 11.481-169.116 5.43-199.06-14.43-6.361-4.343-7.292-5.74-7.758-11.17-1.241-16.757 31.496-48.873 78.817-77.576 29.014-17.532 71.06-38.168 105.504-51.355 23.583-9.154 24.824-9.62 24.824-11.016 0-3.258-15.515-58.493-16.756-59.734-2.017-2.017-55.7 19.55-87.972 35.065-59.578 28.858-101.78 56.785-130.638 86.42-14.739 15.36-17.997 19.393-25.29 31.96-27.461 46.701-13.653 92.937 35.53 118.226 29.79 15.205 63.147 21.566 120.554 22.963 51.355 1.241 100.538-2.638 151.893-12.102 9.465-1.707 23.118-4.19 30.41-5.585 7.448-1.397 14.43-2.173 15.67-1.707 1.087.465 12.413 16.911 25.135 36.305 12.723 19.55 24.514 37.082 26.22 38.944 3.725 4.189 7.448 4.344 20.17 1.086 13.033-3.414 21.101-7.758 21.877-11.947.31-1.862 1.396-19.86 2.483-39.874.93-20.015 2.172-40.184 2.637-44.529.776-7.912 1.086-8.223 6.516-9.774 18.929-5.12 74.939-25.6 95.73-35.065 69.507-31.34 107.985-53.682 141.808-81.92 27.617-23.118 45.925-46.235 54.303-68.887 12.102-32.117 1.707-66.716-26.53-87.816-24.67-18.464-56.476-28.704-105.194-33.513-18.463-1.862-77.11-1.707-101.004.155z"/>
    </g>
</svg>